<?xml version="1.0" standalone="no"?>
<!DOCTYPE svg PUBLIC "-//W3C//DTD SVG 20010904//EN"
 "http://www.w3.org/TR/2001/REC-SVG-20010904/DTD/svg10.dtd">
<svg version="1.0" xmlns="http://www.w3.org/2000/svg"
 width="500.000000pt" height="500.000000pt" viewBox="0 0 500.000000 500.000000"
 preserveAspectRatio="xMidYMid meet">

<g transform="translate(0.000000,500.000000) scale(0.100000,-0.100000)"
fill="#000000" stroke="none">
<path d="M2020 3537 c0 -35 -22 -80 -67 -135 -56 -69 -54 -142 6 -196 21 -20
30 -9 10 11 -7 7 -12 30 -12 53 0 32 10 55 47 108 50 73 58 115 31 162 l-14
25 -1 -28z"/>
<path d="M2071 3447 c-7 -20 -28 -56 -47 -81 -45 -59 -46 -103 -4 -148 l30
-33 -16 33 c-19 39 -11 69 35 132 31 43 40 91 22 119 -6 10 -12 4 -20 -22z"/>
<path d="M2120 3396 c0 -13 -13 -40 -30 -61 -39 -49 -44 -68 -26 -104 23 -43
32 -44 28 -2 -3 28 4 49 28 87 26 43 29 55 21 77 -13 33 -21 35 -21 3z"/>
<path d="M1945 2990 c26 -51 20 -69 -25 -76 -22 -4 -40 -9 -40 -11 0 -20 25
-42 54 -47 37 -7 53 -31 35 -52 -6 -8 -8 -26 -4 -44 6 -26 2 -38 -22 -68 -63
-78 -67 -108 -23 -146 26 -21 31 -33 33 -76 1 -39 -2 -55 -15 -64 -9 -7 -38
-32 -65 -57 l-48 -44 -4 -78 c-2 -51 1 -83 8 -90 18 -18 31 10 31 72 0 51 1
53 18 38 31 -28 99 -40 152 -27 91 22 117 75 55 111 -23 14 -35 28 -35 43 0
12 -5 27 -11 33 -9 9 -5 14 15 19 54 13 55 65 3 93 -24 13 -37 37 -37 73 0 19
135 191 194 247 35 34 48 71 25 71 -16 0 -133 -74 -186 -116 -48 -39 -48 -39
-50 -16 -1 9 -5 29 -8 44 -7 26 -5 28 35 34 24 4 52 16 64 28 l20 20 -24 7
c-14 4 -37 7 -52 8 -38 1 -43 16 -19 55 12 18 21 36 21 40 0 3 -25 6 -55 6
l-56 0 16 -30z m187 -187 c-12 -31 -123 -183 -133 -183 -14 0 -11 16 5 30 11
8 12 18 6 36 -9 22 -5 29 27 57 31 27 93 75 100 77 1 0 -1 -8 -5 -17z m-162
-169 c0 -8 -4 -12 -10 -9 -5 3 -10 10 -10 16 0 5 5 9 10 9 6 0 10 -7 10 -16z
m-20 -40 c0 -25 -15 -33 -23 -11 -6 18 4 48 14 41 5 -3 9 -16 9 -30z m101
-110 c10 -13 10 -17 -2 -25 -23 -14 -29 -11 -29 16 0 29 12 32 31 9z m-141
-209 c14 -19 14 -19 -2 -6 -10 7 -18 18 -18 24 0 6 1 8 3 6 1 -2 9 -13 17 -24z
m162 -7 c-7 -7 -12 -8 -12 -2 0 6 3 14 7 17 3 4 9 5 12 2 2 -3 -1 -11 -7 -17z"/>
<path d="M3035 2924 c-60 -15 -105 -37 -105 -52 0 -9 -3 -34 -6 -55 l-7 -37
47 26 c69 38 159 44 221 14 49 -23 89 -73 105 -128 l9 -32 -215 0 -214 0 0
-79 c0 -183 84 -275 250 -276 126 0 215 57 272 175 18 36 22 63 23 140 0 84
-3 101 -27 145 -54 102 -139 154 -261 160 -40 2 -81 2 -92 -1z m256 -382 c-34
-118 -131 -178 -218 -135 -49 24 -74 61 -80 117 l-6 46 156 0 156 0 -8 -28z"/>
<path d="M1025 2886 l26 -35 -3 -253 c-2 -139 -7 -261 -12 -270 -7 -16 -1 -18
74 -18 73 0 81 2 76 17 -16 40 -27 176 -24 287 l3 119 98 -121 99 -122 91 115
c51 62 95 114 100 114 19 2 3 -337 -18 -391 -6 -16 1 -18 75 -18 75 0 81 2 74
18 -5 9 -10 129 -12 265 -3 230 -2 252 16 288 l19 39 -67 0 c-46 0 -69 -4 -73
-13 -4 -10 -167 -217 -197 -250 -8 -9 -185 201 -203 241 -9 20 -17 22 -89 22
l-79 0 26 -34z"/>
<path d="M2338 2871 c20 -27 63 -95 94 -150 l58 -100 -61 -98 c-34 -54 -75
-118 -93 -143 -18 -25 -35 -51 -40 -57 -5 -10 13 -13 78 -13 l86 0 0 32 c0 31
72 168 89 168 14 0 81 -141 81 -171 l0 -29 95 0 95 0 -45 55 c-24 30 -70 98
-100 150 l-57 96 48 77 c26 42 71 112 100 155 l53 77 -83 0 -84 0 -7 -37 c-6
-37 -73 -163 -85 -163 -11 0 -90 157 -90 179 0 20 -5 21 -85 21 l-85 0 38 -49z"/>
<path d="M3505 2893 c4 -16 9 -129 12 -253 3 -172 1 -237 -10 -277 l-14 -53
80 0 c78 0 79 0 72 23 -8 25 -19 253 -14 282 3 14 29 -15 98 -106 52 -68 101
-141 109 -161 l15 -38 91 0 90 0 -36 38 c-20 20 -81 97 -137 170 l-101 133 73
92 c41 51 95 111 120 135 l47 42 -94 0 -94 0 -11 -31 c-10 -29 -81 -128 -146
-204 l-26 -30 5 110 c2 61 8 120 11 133 7 21 6 22 -70 22 l-77 0 7 -27z"/>
<path d="M1580 1904 c-14 -35 -13 -35 16 -24 14 6 37 10 50 10 l26 0 -4 -140
-3 -140 30 0 30 0 -3 141 -4 142 41 -6 c33 -4 43 -2 51 13 6 10 10 21 10 24 0
3 -52 6 -115 6 -115 0 -116 0 -125 -26z"/>
<path d="M2335 1770 l0 -160 27 0 27 0 -6 70 -6 70 73 0 72 0 -4 -70 -4 -70
31 0 30 0 0 160 0 160 -30 0 -31 0 4 -70 4 -70 -72 0 -73 0 7 70 6 70 -27 0
-28 0 0 -160z"/>
<path d="M1864 1807 c-22 -19 -28 -34 -32 -80 -4 -52 -2 -58 26 -87 23 -23 39
-30 69 -30 38 0 63 14 63 35 0 6 -15 9 -38 7 -43 -4 -72 16 -72 49 0 17 7 19
60 19 58 0 60 1 60 26 0 28 -16 65 -34 76 -23 16 -75 8 -102 -15z m90 -23 c11
-29 6 -34 -34 -34 -26 0 -40 5 -40 13 0 34 62 52 74 21z"/>
<path d="M2057 1823 c-17 -17 -6 -33 18 -27 15 4 32 1 40 -6 27 -23 17 -44
-31 -64 -57 -23 -74 -54 -50 -91 17 -26 45 -32 77 -15 13 7 19 7 19 0 0 -5 12
-10 28 -10 l27 0 -5 96 c-4 80 -8 98 -24 110 -20 14 -87 19 -99 7z m73 -143
c0 -25 -4 -30 -25 -30 -14 0 -28 7 -31 15 -10 25 4 45 31 45 21 0 25 -5 25
-30z"/>
<path d="M2664 1812 c-31 -25 -44 -55 -44 -102 0 -92 104 -134 169 -69 26 26
31 38 31 81 0 41 -5 54 -29 79 -35 34 -93 39 -127 11z m89 -29 c25 -29 26
-103 1 -127 -21 -21 -40 -20 -64 4 -22 22 -27 88 -10 121 13 24 52 25 73 2z"/>
<path d="M2868 1733 c2 -54 9 -104 14 -110 15 -18 68 -16 90 4 17 15 18 15 18
0 0 -12 9 -17 28 -17 l27 0 0 110 0 110 -30 0 -30 0 0 -87 c0 -88 0 -88 -27
-91 -39 -5 -52 26 -45 110 l6 68 -27 0 -27 0 3 -97z"/>
<path d="M3111 1811 c-31 -31 -26 -59 20 -101 28 -26 40 -43 36 -54 -9 -22
-56 -21 -64 2 -6 14 -8 13 -13 -8 -9 -35 -4 -40 44 -40 81 0 106 75 41 124
-20 16 -35 36 -35 48 0 18 4 20 36 15 29 -5 35 -3 32 11 -5 27 -72 28 -97 3z"/>
<path d="M3283 1815 c-51 -36 -54 -147 -6 -185 37 -29 112 -25 124 6 7 21 5
22 -32 17 -44 -6 -79 15 -79 49 0 15 8 18 60 18 l60 0 0 35 c0 65 -72 99 -127
60z m88 -42 c8 -22 6 -23 -36 -23 -49 0 -50 1 -34 31 14 27 59 22 70 -8z"/>
</g>
</svg>
